<?xml version="1.0" encoding="utf-8"?>
<!-- Generator: Adobe Illustrator 24.0.2, SVG Export Plug-In . SVG Version: 6.00 Build 0)  -->
<svg version="1.1" id="Livello_1" xmlns="http://www.w3.org/2000/svg" xmlns:xlink="http://www.w3.org/1999/xlink" x="0px" y="0px"
	 width="442.95755px" height="94.9020691px" viewBox="0 0 442.95755 94.9020691"
	 style="enable-background:new 0 0 442.95755 94.9020691;" xml:space="preserve">
<style type="text/css">
	.st0{fill:#F7AC09;}
	.st1{fill:#820021;}
	.st2{fill:#FFFFFF;}
</style>
<g>
	<g>
		<g>
			<g>
				<path class="st0" d="M245.0721893,0h-4.8003998c-18.3466034,0-33.6912231,14.1187286-36.4857788,33.5710945
					l-3.4725494,24.169548c-1.4860535,10.3496666,0.9545746,19.8104057,6.8724365,26.6388893
					c5.4772034,6.3216095,13.1999054,9.6628952,22.3330688,9.6628952h4.8003845
					c18.3471985,0,33.6912384-14.1187286,36.4852142-33.571682l3.4725342-24.1689606
					c1.4872437-10.3479118-0.9528198-19.8086433-6.8718567-26.6388893C261.9274597,3.3412879,254.2047577,0,245.0721893,0z
					 M255.2712555,33.570507l-3.4725494,24.1701355c-1.4233551,9.9084206-8.7745361,17.1002235-17.4793549,17.1002235h-4.8003845
					c-3.4450073,0-6.0766754-1.0213776-7.8223267-3.0359955c-2.2150116-2.5566483-3.0594177-6.5811996-2.3773346-11.3335381
					v-0.0005875l3.4725494-24.1689606c1.4239502-9.9084225,8.7757111-17.1002197,17.4799347-17.1002197h4.8003998
					c3.4450073,0,6.0766602,1.0213718,7.8217316,3.0365753C255.1095276,24.7942066,255.9539337,28.8187542,255.2712555,33.570507z"
					/>
				<path class="st0" d="M429.2930603,0.0539106h-24.3189697c-0.237915,0-0.4535522,0.1406365-0.5490723,0.358623
					l-41.0904541,93.6486435c-0.0820618,0.1869278-0.0644836,0.3990555,0.0462952,0.5689926
					c0.1113281,0.1699371,0.2994385,0.2718964,0.5027771,0.2718964h19.65802c0.237915,0,0.4535522-0.1406403,0.5490723-0.3592072
					l9.5539246-21.7734604h26.9131165l3.0248413,21.6158295c0.0410461,0.2947464,0.2965088,0.5168381,0.5942078,0.5168381
					h18.1807861c0.1740112,0,0.3386841-0.0750046,0.4529419-0.2056808c0.1137085-0.1312637,0.1652527-0.3047104,0.1412354-0.4769897
					L429.8872375,0.5707496C429.8462219,0.275999,429.5907288,0.0539106,429.2930603,0.0539106z M400.2328796,54.7679367
					l14.4427795-32.9165497l4.585907,32.9165497H400.2328796z"/>
				<path class="st0" d="M180.6888123,57.3503761l0.4535522-0.242012c10.4094391-5.546936,17.135376-16.725193,17.135376-28.4788837
					v-4.4042645C198.2777405,10.8670959,187.4106445,0,174.0531158,0h-34.2016144
					c-0.2953339,0-0.5502319,0.2203304-0.5935974,0.5127371l-2.6486511,18.0014668
					c-0.0252075,0.1728649,0.0257721,0.348074,0.1394653,0.4799213c0.1142578,0.1312618,0.2800903,0.2074394,0.4541321,0.2074394
					h36.8502655c2.7699585,0,5.0230713,2.2536983,5.0230713,5.0236511v4.4042645
					c0,7.1953144-5.8534088,13.0493069-13.0487213,13.0493069h-31.0537109c-0.2976685,0-0.5467224,0.2132988-0.5924225,0.5062904
					l-8.1774292,52.0237694c-0.0275345,0.1734543,0.0222702,0.3498306,0.1359482,0.4834366
					c0.1142731,0.1330185,0.2806931,0.2097855,0.4564896,0.2097855h18.2633972c0.2970886,0,0.5467224-0.2133026,0.5924377-0.5062943
					l5.2814789-33.5154228h10.6526337l11.7085571,33.6191444c0.0838013,0.2408371,0.3111572,0.4025726,0.5666504,0.4025726
					h19.0820312c0.1939545,0,0.3773651-0.0943451,0.4892883-0.2525635c0.1125183-0.1582108,0.1418152-0.3615494,0.0773621-0.5443802
					L180.6888123,57.3503761z"/>
				<path class="st0" d="M373.0923767,0.0539106h-29.6801453c-0.2472839,0-0.4729004,0.1552861-0.560791,0.3855783
					L321.737793,55.7365723l-4.6105347-55.133007c-0.0263672-0.3082282-0.2888794-0.5496541-0.5982666-0.5496541H287.532074
					c-0.2982483,0-0.5473022,0.2138846-0.5930176,0.5080492l-14.4726562,93.6486435
					c-0.026947,0.1734543,0.0234375,0.3492508,0.1371155,0.4816818c0.1142883,0.1330185,0.2807007,0.2097855,0.4559021,0.2097855
					h18.2458191c0.2982788,0,0.5479126-0.2138824,0.5930176-0.508049l8.9585571-57.9340172l4.6128845,55.1552696
					c0.0263672,0.3082352,0.2888794,0.5496597,0.5982666,0.5496597h21.9012146c0.2472839,0,0.47229-0.1552887,0.5602112-0.3861694
					l19.6480713-51.4588776l-8.3678589,53.8901367c-0.0269775,0.1740341,0.0228271,0.3498306,0.1371155,0.4828491
					c0.113678,0.1330185,0.2795105,0.209198,0.4552917,0.209198h18.2458496c0.2982483,0,0.5473022-0.2138824,0.5930176-0.5086365
					l14.4251709-93.5636749c0.0181885-0.0861399,0.0228577-0.1289168,0.0228577-0.1757956
					C373.6889038,0.3228779,373.4211121,0.0539106,373.0923767,0.0539106z"/>
				<path class="st1" d="M104.3507614,37.9243774c-7.204689-4.8068352-10.1287613-7.0048656-10.1287613-13.215723
					c0-2.8015957,3.0729141-5.5387325,4.8566513-5.5387325h30.5333481c0.2982635,0,0.5478973-0.2138863,0.5935974-0.509222
					l2.7476807-17.8537979c0.0181732-0.0867258,0.0234528-0.1306747,0.0234528-0.1752096
					c0-0.3310817-0.267807-0.6000489-0.5971222-0.6000489H99.0786514c-12.5582504,0-23.9949265,11.7618961-23.9949265,24.6770115
					c0,16.697649,10.7768555,23.8865147,18.645462,29.1351871c7.4994431,5.0031395,11.1038361,7.750824,11.1038361,15.4905167
					c0,3.0570831-2.9387131,5.538147-4.8566437,5.538147H76.4959488L66.1509705,0.6023929
					c-0.0410233-0.2947506-0.2970963-0.516839-0.59478-0.516839H41.2864418c-0.2379112,0-0.4535522,0.1412224-0.5496559,0.3592089
					L0.0506599,93.1693115c-0.0814519,0.1863403-0.0638724,0.3996429,0.0468788,0.5695724
					c0.1113372,0.1699371,0.2994384,0.2718964,0.5027753,0.2718964H20.151125c0.2379112,0,0.4529667-0.1406326,0.5490685-0.3586197
					l9.1999683-20.8827591h26.9805183l2.8865623,20.7239609c0.0410194,0.2947464,0.2965088,0.5174179,0.5941887,0.5174179
					h39.6149483c13.0065308,0,23.9949265-11.3001328,23.9949265-24.6764221
					C123.9713058,51.0117722,112.1636963,43.1361313,104.3507614,37.9243774z M36.4889793,54.7679367L50.983326,21.7347794
					l4.6017418,33.0331573H36.4889793z"/>
			</g>
		</g>
	</g>
	<g>
		<path class="st2" d="M261.5102539,14.771451c-3.9519043-4.5601377-9.6365356-6.9708805-16.4380646-6.9708805h-4.8003998
			c-14.4292908,0-26.5269623,11.3048277-28.7648468,26.8797264l-3.4725342,24.169548
			c-1.159668,8.0754623,0.6322632,15.3276138,5.0464935,20.4209976c3.951889,4.5606537,9.6365356,6.9708862,16.4380646,6.9708862
			h4.8003845c14.4298859,0,26.5269623-11.3048325,28.764267-26.8797302l3.4725342-24.169548
			C267.7164001,27.1175747,265.924469,19.8654213,261.5102539,14.771451z M262.9921875,34.6802979l-3.4725342,24.169548
			c-1.9800415,13.7858887-12.5781708,23.7915878-25.2003021,23.7915878h-4.8003845
			c-5.7262573,0-10.4698029-1.980629-13.7173309-5.7280045c-3.7198334-4.2929306-5.2123413-10.5260544-4.2032776-17.5514297
			l3.4725494-24.169548c1.9806366-13.7858906,12.5793457-23.7915878,25.200882-23.7915878h4.8003998
			c5.7262421,0,10.4697876,1.9806299,13.7173309,5.7285919C262.5093384,21.4217968,264.0018616,27.6549225,262.9921875,34.6802979z"
			/>
	</g>
	<path class="st2" d="M190.4771118,24.2251511c0-9.0564022-7.3675995-16.4245796-16.423996-16.4245796h-27.0010223
		l-0.6226196,3.6002932h27.623642c7.0710907,0,12.8237,5.7532024,12.8237,12.8242874v4.4042645
		c0,11.4964428-9.3529053,20.8499393-20.84935,20.8499393h-24.8750763l-5.6113892,36.3091125h3.6429901l5.0577087-32.7088165
		h21.7857666c0.3666077,0,0.7233276-0.0389671,1.0860443-0.0550117l11.3913422,32.7638283h3.8816376l-11.6057281-33.1807556
		c11.2131805-2.2194176,19.6963501-12.1233749,19.6963501-23.9782963V24.2251511z"/>
	<polygon class="st2" points="320.5318604,80.7639389 316.0033569,80.7639389 309.9055786,7.8544812 293.7130737,7.8544812 
		293.4789734,9.3822174 293.4786682,9.3821449 281.7711792,85.7884674 285.4139709,85.7884674 296.803833,11.4547749 
		306.5935974,11.4547749 312.6913757,84.3642273 323.0105591,84.3642273 350.8489685,11.4547749 360.5036621,11.4547749 
		349.1138,85.7884674 352.7565613,85.7884674 364.6981506,7.8544812 348.3702393,7.8544812 	"/>
	<path class="st2" d="M409.6777954,7.8544812l-34.195343,77.9339828h3.9313965l9.1352234-20.8197632h38.7971802l2.900116,20.8197632
		h3.6355286l-10.855957-77.9339828H409.6777954z M390.1288147,61.368412l21.901123-49.9136353h7.8621521l6.9527283,49.9136353
		H390.1288147z"/>
	<path class="st2" d="M99.0787964,11.3692207h25.5394669l0.5544891-3.5370069h-26.093956
		c-8.3239212,0-16.1942902,8.2014484-16.1942902,16.8763733c0,12.5248489,7.7139053,17.6703873,15.1740875,22.6465721
		c7.4953384,4.9996262,14.5752106,9.7220802,14.5752106,21.9791374c0,6.9814224-6.0327148,13.3387756-12.65728,13.3387756
		H69.7062836L59.2892227,7.8861241H45.9902878L11.8080111,85.7884674h3.8619356l9.1353645-20.8197632h38.8646622
		L66.628685,86.210083h33.3478394c8.6268692,0,16.1942825-7.8861923,16.1942825-16.8757858
		c0-14.1492004-8.5799942-19.871933-16.1497498-24.9213676c-7.2972717-4.8677826-13.5995483-9.07164-13.5995483-19.7043419
		C86.4215088,17.9762039,92.6909714,11.3692207,99.0787964,11.3692207z M26.3850536,61.368412l21.9151897-49.945282h7.9113846
		l6.9568901,49.945282H26.3850536z"/>
</g>
</svg>
