<?xml version="1.0" encoding="UTF-8"?>
<svg id="Ebene_1" xmlns="http://www.w3.org/2000/svg" xmlns:xlink="http://www.w3.org/1999/xlink" version="1.1" viewBox="0 0 1080 1080">
  <!-- Generator: Adobe Illustrator 30.1.0, SVG Export Plug-In . SVG Version: 2.1.1 Build 136)  -->
  <defs>
    <style>
      .st0 {
        fill: none;
      }

      .st1 {
        fill: #09633d;
      }

      .st2 {
        fill: #fff;
      }

      .st3 {
        clip-path: url(#clippath);
      }
    </style>
    <clipPath id="clippath">
      <rect class="st0" width="1080" height="1080"/>
    </clipPath>
  </defs>
  <g class="st3">
    <path class="st2" d="M540,0C241.77,0,0,241.77,0,540s241.77,540,540,540,540-241.77,540-540S838.23,0,540,0"/>
    <path class="st1" d="M540,24.35C255.22,24.35,24.35,255.22,24.35,540s230.87,515.64,515.65,515.64,515.64-230.86,515.64-515.64S824.78,24.35,540,24.35M540,71.71c258.22,0,468.29,210.08,468.29,468.29s-210.08,468.29-468.29,468.29S71.71,798.22,71.71,540,281.78,71.71,540,71.71"/>
    <path class="st1" d="M831.07,307.25v31.57h-31.57v-31.57h-31.57v31.57h-31.57v-31.57h-31.57v339.26c0,23.67-19.26,42.93-42.93,42.93s-42.93-19.26-42.93-42.93v-276.17h-31.57v31.63h-31.57v-31.63h-31.57v31.63h-31.57v-31.63h-31.57v276.17c0,23.67-19.26,42.93-42.93,42.93s-42.93-19.26-42.93-42.93v-339.26h-31.57v31.57h-31.57v-31.57h-31.57v31.57h-31.57v-31.57h-31.57v339.26c0,110.72,90.07,200.78,200.78,200.78,45.8,0,88.04-15.44,121.86-41.36,33.82,25.91,76.06,41.36,121.86,41.36,110.71,0,200.78-90.07,200.78-200.78v-339.26h-31.57Z"/>
  </g>
</svg>