<?xml version="1.0" encoding="UTF-8" standalone="no"?>
<svg
   xmlns:dc="http://purl.org/dc/elements/1.1/"
   xmlns:cc="http://creativecommons.org/ns#"
   xmlns:rdf="http://www.w3.org/1999/02/22-rdf-syntax-ns#"
   xmlns:svg="http://www.w3.org/2000/svg"
   xmlns="http://www.w3.org/2000/svg"
   xmlns:sodipodi="http://sodipodi.sourceforge.net/DTD/sodipodi-0.dtd"
   xmlns:inkscape="http://www.inkscape.org/namespaces/inkscape"
   width="415.37305mm"
   height="435.87695mm"
   viewBox="0 0 415.37304 435.87695"
   version="1.1"
   id="svg8"
   inkscape:version="1.0 (4035a4fb49, 2020-05-01)"
   sodipodi:docname="HTR.svg">
  <defs
     id="defs2" />
  <sodipodi:namedview
     id="base"
     pagecolor="#ffffff"
     bordercolor="#666666"
     borderopacity="1.0"
     inkscape:pageopacity="0.0"
     inkscape:pageshadow="2"
     inkscape:zoom="0.46474588"
     inkscape:cx="962.30979"
     inkscape:cy="904.20933"
     inkscape:document-units="mm"
     inkscape:current-layer="layer1"
     inkscape:document-rotation="0"
     showgrid="false"
     fit-margin-top="0"
     fit-margin-left="0"
     fit-margin-right="0"
     fit-margin-bottom="0"
     inkscape:window-width="1920"
     inkscape:window-height="986"
     inkscape:window-x="-11"
     inkscape:window-y="-11"
     inkscape:window-maximized="1" />
  <metadata
     id="metadata5">
    <rdf:RDF>
      <cc:Work
         rdf:about="">
        <dc:format>image/svg+xml</dc:format>
        <dc:type
           rdf:resource="http://purl.org/dc/dcmitype/StillImage" />
        <dc:title />
      </cc:Work>
    </rdf:RDF>
  </metadata>
  <g
     inkscape:label="Calque 1"
     inkscape:groupmode="layer"
     id="layer1"
     transform="translate(701.41211,296.34766)">
    <path
       id="path2175"
       d="m -493.79688,-296.34766 c -61.00358,0.0193 -119.48046,24.47573 -162.33398,67.89258 l -15.41211,15.61328 15.85156,15.02539 c -29.34582,36.64928 -45.7205,82.2662 -45.7207,129.658207 -10e-6,55.074137 21.88672,107.914053 60.83008,146.857422 38.94336,38.943371 91.78328,60.830101 146.85742,60.830081 55.07414,2e-5 107.91212,-21.88671 146.85547,-60.830081 38.94336,-38.943369 60.83011,-91.783281 60.83008,-146.857422 -1.5e-4,-47.391887 -16.37281,-93.008737 -45.71875,-129.658207 l 15.84179,-15.0332 -15.40234,-15.60547 c -42.871,-43.43458 -101.37772,-67.89259 -162.40625,-67.89258 h -0.0664 -0.004 z m 0.006,42.99805 h 0.002 0.004 0.0606 c 42.15414,-10e-6 82.73024,14.46142 115.35547,40.48438 l -13.86719,13.16015 15.46875,15.60742 c 30.57981,30.84787 47.72785,72.50323 47.72852,115.939457 2e-5,43.686352 -17.34334,85.560109 -48.23438,116.451172 -30.89102,30.891028 -72.76482,48.236346 -116.45117,48.236328 -43.68635,1.8e-5 -85.56013,-17.345294 -116.45117,-48.236328 -30.89114,-30.89106 -48.23635,-72.764815 -48.23633,-116.451172 6.9e-4,-43.440087 17.15178,-85.098747 47.73633,-115.947267 l 15.48242,-15.61523 -13.87891,-13.1543 c 32.60611,-26.0041 73.15429,-40.45957 115.28125,-40.47461 z"
       style="color:#000000;font-style:normal;font-variant:normal;font-weight:normal;font-stretch:normal;font-size:medium;line-height:normal;font-family:sans-serif;font-variant-ligatures:normal;font-variant-position:normal;font-variant-caps:normal;font-variant-numeric:normal;font-variant-alternates:normal;font-variant-east-asian:normal;font-feature-settings:normal;font-variation-settings:normal;text-indent:0;text-align:start;text-decoration:none;text-decoration-line:none;text-decoration-style:solid;text-decoration-color:#000000;letter-spacing:normal;word-spacing:normal;text-transform:none;writing-mode:lr-tb;direction:ltr;text-orientation:mixed;dominant-baseline:auto;baseline-shift:baseline;text-anchor:start;white-space:normal;shape-padding:0;shape-margin:0;inline-size:0;clip-rule:nonzero;display:inline;overflow:visible;visibility:visible;isolation:auto;mix-blend-mode:normal;color-interpolation:sRGB;color-interpolation-filters:linearRGB;solid-color:#000000;solid-opacity:1;vector-effect:none;fill:#ffffff;fill-opacity:1;fill-rule:nonzero;stroke:none;stroke-width:30;stroke-linecap:round;stroke-linejoin:miter;stroke-miterlimit:4;stroke-dasharray:none;stroke-dashoffset:0;stroke-opacity:1;paint-order:stroke fill markers;color-rendering:auto;image-rendering:auto;shape-rendering:auto;text-rendering:auto;enable-background:accumulate;stop-color:#000000" />
    <path
       id="path2177"
       d="m -493.79211,-281.34838 c -56.99856,0.018 -111.62305,22.86333 -151.66309,63.42972 l -4.65967,4.72064 14.99444,14.21205 c -32.89222,35.5483 -51.29073,82.2355 -51.29093,130.82871 -1e-5,51.101157 20.30237,100.116092 56.43635,136.250078 36.13398,36.133982 85.14892,56.436362 136.25008,56.436342 51.10116,2e-5 100.11612,-20.30236 136.25008,-56.436342 36.13398,-36.133986 56.43636,-85.148921 56.43633,-136.250078 -1.5e-4,-48.59017 -18.39608,-95.27486 -51.28471,-130.8225 l 14.98513,-14.22084 -4.65657,-4.71806 c -40.05638,-40.58296 -94.7084,-63.42973 -151.73026,-63.42972 h -0.0661 z m 0.002,12.99972 h 0.002 0.063 c 51.33262,-1e-5 100.57313,19.755 137.70115,54.95841 l -14.76705,14.01361 4.67672,4.71806 c 33.36068,33.65312 52.07571,79.11496 52.07587,126.50132 3e-5,47.658345 -18.9298,93.357813 -52.62933,127.057368 -33.69952,33.699529 -79.39902,52.629352 -127.05736,52.629332 -47.65834,2e-5 -93.35782,-18.929803 -127.05736,-52.629332 -33.69964,-33.699555 -52.62946,-79.399023 -52.62944,-127.057368 1.9e-4,-47.39051 18.7183,-92.85576 52.08415,-126.50959 l 4.68086,-4.72116 -14.77636,-14.00534 c 37.1114,-35.18612 86.32439,-54.93862 137.63294,-54.95531 z"
       style="color:#000000;font-style:normal;font-variant:normal;font-weight:normal;font-stretch:normal;font-size:medium;line-height:normal;font-family:sans-serif;font-variant-ligatures:normal;font-variant-position:normal;font-variant-caps:normal;font-variant-numeric:normal;font-variant-alternates:normal;font-variant-east-asian:normal;font-feature-settings:normal;font-variation-settings:normal;text-indent:0;text-align:start;text-decoration:none;text-decoration-line:none;text-decoration-style:solid;text-decoration-color:#000000;letter-spacing:normal;word-spacing:normal;text-transform:none;writing-mode:lr-tb;direction:ltr;text-orientation:mixed;dominant-baseline:auto;baseline-shift:baseline;text-anchor:start;white-space:normal;shape-padding:0;shape-margin:0;inline-size:0;clip-rule:nonzero;display:inline;overflow:visible;visibility:visible;isolation:auto;mix-blend-mode:normal;color-interpolation:sRGB;color-interpolation-filters:linearRGB;solid-color:#000000;solid-opacity:1;vector-effect:none;fill:#000000;fill-opacity:1;fill-rule:nonzero;stroke:none;stroke-width:30;stroke-linecap:round;stroke-linejoin:miter;stroke-miterlimit:4;stroke-dasharray:none;stroke-dashoffset:0;stroke-opacity:1;paint-order:stroke fill markers;color-rendering:auto;image-rendering:auto;shape-rendering:auto;text-rendering:auto;enable-background:accumulate;stop-color:#000000" />
    <path
       id="path2169"
       d="m -493.79004,-274.84852 c -55.26326,0.0174 -108.21806,22.16463 -147.03909,61.49599 l 14.88592,14.10922 c -34.57106,34.86943 -53.96808,81.98375 -53.96829,131.08605 -10e-6,49.379751 19.61602,96.737045 54.53277,131.653789 34.91676,34.916771 82.27405,54.532791 131.6538,54.532771 49.37975,0 96.73704,-19.616026 131.65379,-54.532771 34.91674,-34.916744 54.53276,-82.274038 54.53276,-131.653789 -1.8e-4,-49.098 -19.39379,-96.20857 -53.95949,-131.07727 l 14.87715,-14.118 c -38.83689,-39.34742 -91.81837,-61.496 -147.10421,-61.49599 z"
       style="color:#000000;font-style:normal;font-variant:normal;font-weight:normal;font-stretch:normal;font-size:medium;line-height:normal;font-family:sans-serif;font-variant-ligatures:normal;font-variant-position:normal;font-variant-caps:normal;font-variant-numeric:normal;font-variant-alternates:normal;font-variant-east-asian:normal;font-feature-settings:normal;font-variation-settings:normal;text-indent:0;text-align:start;text-decoration:none;text-decoration-line:none;text-decoration-style:solid;text-decoration-color:#000000;letter-spacing:normal;word-spacing:normal;text-transform:none;writing-mode:lr-tb;direction:ltr;text-orientation:mixed;dominant-baseline:auto;baseline-shift:baseline;text-anchor:start;white-space:normal;shape-padding:0;shape-margin:0;inline-size:0;clip-rule:nonzero;display:inline;overflow:visible;visibility:visible;isolation:auto;mix-blend-mode:normal;color-interpolation:sRGB;color-interpolation-filters:linearRGB;solid-color:#000000;solid-opacity:1;vector-effect:none;fill:#ffffff;fill-opacity:1;fill-rule:nonzero;stroke:none;stroke-width:0.264999;stroke-linecap:round;stroke-linejoin:miter;stroke-miterlimit:4;stroke-dasharray:none;stroke-dashoffset:0;stroke-opacity:1;paint-order:stroke fill markers;color-rendering:auto;image-rendering:auto;shape-rendering:auto;text-rendering:auto;enable-background:accumulate;stop-color:#000000" />
    <g
       style="opacity:1;fill:#000000;stroke:none"
       id="g1003-1-8"
       transform="matrix(-0.83175079,0,0,0.83175079,-535.80923,-0.26855058)">
      <path
         d="m -48.178981,-324.09893 a 2.4525791,2.4525791 0 0 1 -2.452579,2.45258 2.4525791,2.4525791 0 0 1 -2.452579,-2.45258 2.4525791,2.4525791 0 0 1 2.452579,-2.45257 2.4525791,2.4525791 0 0 1 2.452579,2.45257 z"
         style="opacity:1;fill:#000000;stroke-width:6.45003;stroke-linecap:round;stroke-linejoin:round;stroke-miterlimit:26.8;paint-order:stroke fill markers;stroke:none"
         id="path935-4-4" />
      <path
         id="path935-7-4-38"
         style="opacity:1;fill:#000000;stroke-width:6.45004;stroke-linecap:round;stroke-linejoin:round;stroke-miterlimit:26.8;paint-order:stroke fill markers;stroke:none"
         d="m -53.637809,-319.76721 a 2.4525791,2.4525791 0 0 1 -2.45258,2.45258 2.4525791,2.4525791 0 0 1 -2.45258,-2.45258 2.4525791,2.4525791 0 0 1 2.45258,-2.45257 2.4525791,2.4525791 0 0 1 2.45258,2.45257 z" />
      <path
         d="m -42.719899,-319.76721 a 2.4525791,2.4525791 0 0 1 -2.45258,2.45258 2.4525791,2.4525791 0 0 1 -2.45258,-2.45258 2.4525791,2.4525791 0 0 1 2.45258,-2.45257 2.4525791,2.4525791 0 0 1 2.45258,2.45257 z"
         style="opacity:1;fill:#000000;stroke-width:6.45004;stroke-linecap:round;stroke-linejoin:round;stroke-miterlimit:26.8;paint-order:stroke fill markers;stroke:none"
         id="path935-7-8-8-2" />
    </g>
    <path
       id="path970-4-9"
       style="opacity:1;fill:#000000;stroke:none;stroke-width:0.220067px;stroke-linecap:butt;stroke-linejoin:miter;stroke-opacity:1"
       d="m -493.6965,-263.02702 c 0.73855,3.35378 1.05333,7.7007 2.27805,12.10327 1.00674,3.61899 2.04203,4.18535 3.66679,6.78084 -1.62117,-0.48131 -3.11039,-1.2531 -4.34592,-2.58279 -0.38126,1.48138 -0.99158,2.04653 -1.59892,2.62362 -0.60734,-0.57709 -1.21765,-1.14224 -1.59892,-2.62362 -1.23552,1.32969 -2.72474,2.10148 -4.34591,2.58279 1.62476,-2.59549 2.66004,-3.16185 3.66678,-6.78084 1.22472,-4.40257 1.53951,-8.74949 2.27805,-12.10327 z" />
    <g
       transform="matrix(-0.80033163,-0.22644787,-0.22644787,0.80033163,-546.05807,-12.10524)"
       id="g1003-1-1-7"
       style="opacity:1;fill:#000000;stroke:none">
      <path
         id="path935-4-1-0"
         style="opacity:1;fill:#000000;stroke-width:6.45003;stroke-linecap:round;stroke-linejoin:round;stroke-miterlimit:26.8;paint-order:stroke fill markers;stroke:none"
         d="m -48.178981,-324.09893 a 2.4525791,2.4525791 0 0 1 -2.452579,2.45258 2.4525791,2.4525791 0 0 1 -2.452579,-2.45258 2.4525791,2.4525791 0 0 1 2.452579,-2.45257 2.4525791,2.4525791 0 0 1 2.452579,2.45257 z" />
      <path
         d="m -53.637809,-319.76721 a 2.4525791,2.4525791 0 0 1 -2.45258,2.45258 2.4525791,2.4525791 0 0 1 -2.45258,-2.45258 2.4525791,2.4525791 0 0 1 2.45258,-2.45257 2.4525791,2.4525791 0 0 1 2.45258,2.45257 z"
         style="opacity:1;fill:#000000;stroke-width:6.45004;stroke-linecap:round;stroke-linejoin:round;stroke-miterlimit:26.8;paint-order:stroke fill markers;stroke:none"
         id="path935-7-4-3-9" />
      <path
         id="path935-7-8-8-0-5"
         style="opacity:1;fill:#000000;stroke-width:6.45004;stroke-linecap:round;stroke-linejoin:round;stroke-miterlimit:26.8;paint-order:stroke fill markers;stroke:none"
         d="m -42.719899,-319.76721 a 2.4525791,2.4525791 0 0 1 -2.45258,2.45258 2.4525791,2.4525791 0 0 1 -2.45258,-2.45258 2.4525791,2.4525791 0 0 1 2.45258,-2.45257 2.4525791,2.4525791 0 0 1 2.45258,2.45257 z" />
    </g>
    <path
       d="m -433.99897,-253.4727 c -0.20243,3.42816 -1.083,7.69658 -1.10317,12.26629 -0.0166,3.75637 0.82541,4.58319 1.68216,7.52298 -1.42889,-0.90449 -2.65173,-2.05257 -3.47857,-3.66841 -0.77018,1.32162 -1.5113,1.69926 -2.25281,2.08919 -0.42729,-0.72064 -0.86068,-1.4306 -0.82424,-2.95982 -1.55086,0.94309 -3.19395,1.28028 -4.88492,1.30203 2.27002,-2.0551 3.42039,-2.3182 5.37439,-5.52639 2.37707,-3.90283 3.86343,-7.99985 5.48716,-11.02587 z"
       style="opacity:1;fill:#000000;stroke:none;stroke-width:0.220067px;stroke-linecap:butt;stroke-linejoin:miter;stroke-opacity:1"
       id="path970-4-7-0" />
    <g
       transform="matrix(-0.65943051,-0.50691297,-0.50691297,0.65943051,-577.34338,-47.065404)"
       id="g1003-1-2-1"
       style="opacity:1;fill:#000000;stroke:none">
      <path
         id="path935-4-2-4"
         style="opacity:1;fill:#000000;stroke-width:6.45003;stroke-linecap:round;stroke-linejoin:round;stroke-miterlimit:26.8;paint-order:stroke fill markers;stroke:none"
         d="m -48.178981,-324.09893 a 2.4525791,2.4525791 0 0 1 -2.452579,2.45258 2.4525791,2.4525791 0 0 1 -2.452579,-2.45258 2.4525791,2.4525791 0 0 1 2.452579,-2.45257 2.4525791,2.4525791 0 0 1 2.452579,2.45257 z" />
      <path
         d="m -53.637809,-319.76721 a 2.4525791,2.4525791 0 0 1 -2.45258,2.45258 2.4525791,2.4525791 0 0 1 -2.45258,-2.45258 2.4525791,2.4525791 0 0 1 2.45258,-2.45257 2.4525791,2.4525791 0 0 1 2.45258,2.45257 z"
         style="opacity:1;fill:#000000;stroke-width:6.45004;stroke-linecap:round;stroke-linejoin:round;stroke-miterlimit:26.8;paint-order:stroke fill markers;stroke:none"
         id="path935-7-4-5-1" />
      <path
         id="path935-7-8-8-9-3"
         style="opacity:1;fill:#000000;stroke-width:6.45004;stroke-linecap:round;stroke-linejoin:round;stroke-miterlimit:26.8;paint-order:stroke fill markers;stroke:none"
         d="m -42.719899,-319.76721 a 2.4525791,2.4525791 0 0 1 -2.45258,2.45258 2.4525791,2.4525791 0 0 1 -2.45258,-2.45258 2.4525791,2.4525791 0 0 1 2.45258,-2.45257 2.4525791,2.4525791 0 0 1 2.45258,2.45257 z" />
    </g>
    <path
       d="m -383.81655,-229.72043 c -1.45843,3.10906 -3.85811,6.74725 -5.57028,10.98411 -1.40744,3.48278 -0.93181,4.56276 -1.22549,7.61073 -0.99197,-1.36961 -1.70229,-2.88912 -1.87145,-4.69632 -1.20511,0.94211 -2.03341,1.01821 -2.86663,1.10559 -0.12981,-0.82767 -0.26925,-1.64769 0.33131,-3.05453 -1.78994,0.30122 -3.441,0.006 -5.01963,-0.60094 2.86997,-1.06754 4.03594,-0.8856 7.03971,-3.14126 3.65415,-2.74405 6.55296,-5.99854 9.18246,-8.20738 z"
       style="opacity:1;fill:#000000;stroke:none;stroke-width:0.220067px;stroke-linecap:butt;stroke-linejoin:miter;stroke-opacity:1"
       id="path970-4-8-8" />
    <path
       id="path117-2"
       style="opacity:1;fill:#ffffff;stroke-width:23.1076;stroke-linecap:round;stroke-linejoin:round;stroke-miterlimit:26.8;paint-order:stroke fill markers;stroke:none"
       d="M -322.52289,-68.157254 A 171.20211,171.20211 0 0 1 -493.725,103.04487 171.20211,171.20211 0 0 1 -664.92711,-68.157254 171.20211,171.20211 0 0 1 -493.725,-239.35935 171.20211,171.20211 0 0 1 -322.52289,-68.157254" />
    <path
       id="path117-2-0"
       style="opacity:1;fill:#000000;stroke-width:87.3358;stroke-linecap:round;stroke-linejoin:round;stroke-miterlimit:26.8;paint-order:stroke fill markers;stroke:none"
       d="m 436.58203,303.9707 a 647.06309,647.06309 0 0 0 -114.95312,92.22657 v 0.004 c -119.98764,121.16138 -187.29838,284.78847 -187.29883,455.3086 1.5e-4,171.61163 68.1718,336.19523 189.51953,457.54293 121.34772,121.3477 285.93137,189.5194 457.54297,189.5196 171.61161,-10e-5 336.19522,-68.1719 457.54292,-189.5196 121.3477,-121.3477 189.5195,-285.9313 189.5196,-457.54293 -2e-4,-170.46952 -67.2708,-334.05238 -187.1953,-455.20508 L 781.5,818.41797 436.58203,501.74219 Z"
       transform="matrix(0.26458333,0,0,0.26458333,-700.46838,-293.45255)" />
    <path
       id="path117-2-9"
       style="opacity:1;fill:#d51010;fill-opacity:1;stroke-width:73.3962;stroke-linecap:round;stroke-linejoin:round;stroke-miterlimit:26.8;paint-order:stroke fill markers;stroke:none"
       d="M 397.76953,466.10742 A 543.78591,543.78591 0 0 0 237.60547,851.50977 543.78591,543.78591 0 0 0 781.39258,1395.2949 543.78591,543.78591 0 0 0 1325.1777,851.50977 543.78591,543.78591 0 0 0 1165.1191,466.20898 L 781.5,818.41797 Z"
       transform="matrix(0.26458333,0,0,0.26458333,-700.46838,-293.45255)" />
    <path
       id="path2189"
       style="color:#000000;font-style:normal;font-variant:normal;font-weight:normal;font-stretch:normal;font-size:medium;line-height:normal;font-family:sans-serif;font-variant-ligatures:normal;font-variant-position:normal;font-variant-caps:normal;font-variant-numeric:normal;font-variant-alternates:normal;font-variant-east-asian:normal;font-feature-settings:normal;font-variation-settings:normal;text-indent:0;text-align:start;text-decoration:none;text-decoration-line:none;text-decoration-style:solid;text-decoration-color:#000000;letter-spacing:normal;word-spacing:normal;text-transform:none;writing-mode:lr-tb;direction:ltr;text-orientation:mixed;dominant-baseline:auto;baseline-shift:baseline;text-anchor:start;white-space:normal;shape-padding:0;shape-margin:0;inline-size:0;clip-rule:nonzero;display:inline;overflow:visible;visibility:visible;isolation:auto;mix-blend-mode:normal;color-interpolation:sRGB;color-interpolation-filters:linearRGB;solid-color:#000000;solid-opacity:1;vector-effect:none;fill:#ffffff;fill-opacity:1;fill-rule:nonzero;stroke:none;stroke-width:9.99999;stroke-linecap:butt;stroke-linejoin:round;stroke-miterlimit:4;stroke-dasharray:none;stroke-dashoffset:0;stroke-opacity:1;color-rendering:auto;image-rendering:auto;shape-rendering:auto;text-rendering:auto;enable-background:accumulate;stop-color:#000000"
       d="m 430.67188,667.61914 c -22.13664,0.17725 -39.57549,6.0865 -51.15626,18.34766 -10.55833,11.17867 -14.80665,24.44962 -14.82226,44.59375 -0.0189,29.2402 8.70135,64.92727 26.44922,109.85156 18.94333,47.95025 44.38121,108.37958 85.26758,177.71879 42.16516,71.508 64.13219,108.2338 70.39453,139.0742 2.64604,13.031 1.60359,28.2671 -0.8418,33.3652 -2.46516,5.1392 -8.00732,10.4246 -16.2832,14.5801 -5.92596,2.9755 -5.32679,2.834 -11.7168,2.834 -8.62552,0 -12.20479,-1.72 -21.57617,-10.7617 -8.40197,-8.1064 -16.74168,-20.5102 -25.59375,-38.6153 -6.74925,-13.8043 -8.89492,-18.9661 -22.95703,-55.0762 -17.54733,-45.0595 -42.29732,-91.4312 -69.08789,-129.41987 -6.56206,-9.3049 -10.01528,-14.23039 -13.52344,-17.67188 -3.50816,-3.44148 -7.16328,-4.90338 -11.57422,-6.31054 -22.04659,-7.03325 -51.6793,-8.81751 -82.2793,-5.2793 -2.58893,0.29934 -5.04743,0.64251 -6.99804,0.9668 -0.97531,0.16214 -1.81332,0.31255 -2.53907,0.47265 -0.36283,0.0801 -0.69351,0.15973 -1.05468,0.26563 -0.36133,0.1059 -0.60618,0.0605 -1.63282,0.70117 -2.24356,1.40028 -2.47314,3.6299 -2.47265,4.5918 4.5e-4,0.9619 0.15269,1.50422 0.30273,2.04492 0.3001,1.08139 0.71489,2.04657 1.26367,3.24804 1.09758,2.40294 2.76489,5.57618 5.0625,9.65626 25.01292,44.41852 45.76131,93.73252 61.95704,147.32032 13.35454,44.1866 24.54151,75.4029 36.66601,102.1953 23.45307,51.8265 58.70612,98.3589 92.78906,121.4531 18.52967,12.5555 41.41643,21.2429 64.87305,24.6934 19.69648,2.8974 44.92907,1.4515 64.99023,-3.6699 28.82676,-7.3592 57.28104,-24.3726 74.58594,-44.8965 46.0712,-54.6414 52.15299,-134.0912 10.35742,-229.916 -22.22929,-50.9652 -47.59649,-104.77378 -87.2246,-148.5684 -25.82979,-28.54555 -48.36644,-52.85558 -63.79493,-72.3125 -7.71424,-9.72846 -13.63703,-18.25561 -17.28711,-25.2832 -3.65007,-7.02759 -4.81004,-12.41582 -4.20898,-15.67969 1.25571,-6.81889 3.48255,-11.03248 8.35742,-15.86328 5.62976,-5.57889 10.00801,-7.31007 18.83789,-7.27734 15.54312,0.0579 30.20742,10.08823 49.64258,36.39843 13.08775,17.71735 23.54827,34.13091 32.80664,51.47461 1.32321,2.47875 2.6047,4.78548 3.64649,6.55469 0.52089,0.88461 0.98132,1.62515 1.38671,2.24414 0.20259,0.30951 0.38561,0.58586 0.61329,0.88672 0.22752,0.30085 -0.0604,0.4696 1.58789,1.49805 1.46056,0.91159 2.12322,0.79885 2.68554,0.84179 0.56232,0.0429 0.99457,0.0283 1.43946,0 0.8897,-0.0567 1.79569,-0.18584 2.84179,-0.36132 2.0922,-0.35101 4.68579,-0.90753 7.57422,-1.60938 5.77693,-1.4037 12.67241,-3.36745 18.3086,-5.33008 19.56132,-6.81159 34.85995,-16.00335 47.67187,-28.79687 4.64436,-4.63771 8.82933,-9.71371 11.87695,-14.2168 1.52383,-2.25154 2.76693,-4.34027 3.66211,-6.32617 0.89522,-1.9859 1.92338,-3.63718 1.1211,-6.86523 -0.34848,-1.40205 -0.73825,-1.97425 -1.23243,-2.87891 -0.49417,-0.90466 -1.09761,-1.91943 -1.8164,-3.05664 -1.43762,-2.27441 -3.32142,-5.04473 -5.45508,-8.06055 -4.26731,-6.03163 -9.51692,-12.99067 -14.04688,-18.44726 -44.28642,-53.34598 -96.98032,-90.28834 -163.48046,-114.64063 -35.69496,-13.07146 -65.59978,-20.01738 -89.875,-20.64062 -1.51721,-0.039 -3.01251,-0.0528 -4.48828,-0.041 z"
       transform="matrix(0.26458333,0,0,0.26458333,-700.46838,-293.45255)" />
    <path
       id="path2183"
       style="color:#000000;font-style:normal;font-variant:normal;font-weight:normal;font-stretch:normal;font-size:medium;line-height:normal;font-family:sans-serif;font-variant-ligatures:normal;font-variant-position:normal;font-variant-caps:normal;font-variant-numeric:normal;font-variant-alternates:normal;font-variant-east-asian:normal;font-feature-settings:normal;font-variation-settings:normal;text-indent:0;text-align:start;text-decoration:none;text-decoration-line:none;text-decoration-style:solid;text-decoration-color:#000000;letter-spacing:normal;word-spacing:normal;text-transform:none;writing-mode:lr-tb;direction:ltr;text-orientation:mixed;dominant-baseline:auto;baseline-shift:baseline;text-anchor:start;white-space:normal;shape-padding:0;shape-margin:0;inline-size:0;clip-rule:nonzero;display:inline;overflow:visible;visibility:visible;isolation:auto;mix-blend-mode:normal;color-interpolation:sRGB;color-interpolation-filters:linearRGB;solid-color:#000000;solid-opacity:1;vector-effect:none;fill:#ffffff;fill-opacity:1;fill-rule:nonzero;stroke:none;stroke-width:9.99999;stroke-linecap:butt;stroke-linejoin:round;stroke-miterlimit:4;stroke-dasharray:none;stroke-dashoffset:0;stroke-opacity:1;color-rendering:auto;image-rendering:auto;shape-rendering:auto;text-rendering:auto;enable-background:accumulate;stop-color:#000000"
       d="m 1005.0645,733.06445 c -13.43925,-0.0549 -27.76681,1.51425 -43.13872,4.63477 -38.8803,7.89283 -75.69505,31.99332 -103.47266,67.35351 l -5.83984,7.4336 a 5.0004998,5.0004998 0 0 0 -0.68555,5.01172 l 4.98243,11.95117 c 16.81368,40.36937 40.98518,111.6398 64.7832,191.15428 29.09828,97.2241 45.00289,198.9589 49.51758,317.0293 l 0.59961,15.6055 a 5.0004998,5.0004998 0 0 0 2.23633,3.9785 l 3.27734,2.1699 c 5.79042,3.832 14.40314,6.5585 22.17578,7.3985 8.909,0.9626 16.1592,0.2773 25.6875,-2.3633 9.9225,-2.7499 21.152,-8.0766 29.5801,-14.0469 l 5.4101,-3.832 a 5.0004998,5.0004998 0 0 0 2.1114,-4.1485 l -0.2071,-15.7226 c -0.5938,-45.7529 -7.5243,-124.1995 -15.7148,-178.1114 -0.4977,-3.2758 -0.9247,-6.2873 -1.1973,-8.4511 -0.034,-0.2659 -0.043,-0.374 -0.072,-0.6133 0.1666,-0.1135 0.254,-0.1717 0.4355,-0.2949 1.6768,-1.1395 3.9553,-2.6814 6.4297,-4.3477 12.6528,-8.5205 24.9272,-18.4816 35.9336,-29.1601 2.1435,-2.0797 4.0503,-3.8324 5.6777,-5.2989 0.5815,0.7847 0.9511,1.2627 1.7266,2.3321 3.1721,4.3742 7.9734,11.1337 14.5879,20.5586 13.229,18.8496 33.7291,48.3602 63.2031,90.9453 9.3557,13.5174 17.9962,25.9496 24.3828,35.0937 3.1933,4.5721 5.8199,8.3244 7.6992,10.9844 0.9397,1.33 1.6953,2.3823 2.2442,3.1445 0.2744,0.3811 0.495,0.6915 0.6777,0.9375 0.1826,0.246 0.027,0.1497 0.6719,0.834 1.124,1.1905 3.6265,2.3531 5.6855,2.125 2.0591,-0.2281 3.3783,-1.0706 4.7246,-2.0156 2.6928,-1.89 5.7092,-4.8189 10.6075,-9.7285 12.5686,-12.5974 23.9323,-28.5337 33.0703,-46.2774 l 3.8672,-7.5078 a 5.0004998,5.0004998 0 0 0 -0.168,-4.8789 l -4.1934,-6.916 c -7.7665,-12.8203 -39.3011,-59.7215 -52.7226,-78.4707 -21.3502,-29.8256 -37.9428,-51.5583 -58.6407,-76.8086 l -8.5253,-10.4082 3.6601,-10.9844 c 9.2409,-27.67623 12.5585,-48.39708 12.5352,-78.30662 -0.019,-22.44756 -1.2437,-34.32069 -5.5508,-53.6875 -9.7534,-43.8562 -34.5001,-91.34648 -60.7012,-115.07032 -24.3798,-22.07477 -52.9687,-33.07974 -87.3281,-33.22461 z m -23.78325,95.23828 c 0.73205,-0.0118 1.66284,0.005 2.92969,0.0176 7.36225,0.0735 12.63075,2.66632 21.40626,11.44141 16.9194,16.91851 31.3467,48.79157 37.3672,84.4043 2.2042,13.03849 3.0472,39.17921 1.75,49.00195 -2.9349,22.22345 -11.9139,40.70651 -23.5039,50.41011 -0.5775,0.4836 -0.5609,0.3805 -1.041,0.7227 -0.1637,-0.5268 -0.1263,-0.4121 -0.3028,-0.9883 -0.8848,-2.8927 -2.0507,-6.7285 -3.2851,-10.8145 -14.746,-48.80842 -35.15563,-104.00804 -53.20707,-143.85931 -3.38003,-7.46195 -4.6819,-10.82522 -4.74805,-12.45312 -0.0661,-1.62791 0.76932,-3.5606 3.61719,-9.31446 3.9337,-7.94786 9.30629,-14.07011 14.04102,-16.85351 2.36806,-1.39207 2.78041,-1.67948 4.97656,-1.71485 z"
       transform="matrix(0.26458333,0,0,0.26458333,-700.46838,-293.45255)" />
    <path
       id="rect246-6"
       style="opacity:1;fill:#000000;stroke-width:17.5059;stroke-linecap:round;stroke-linejoin:round;stroke-miterlimit:26.8;paint-order:stroke fill markers;stroke:none"
       d="m 551.53711,607.28516 114.95312,105.54101 v -498.0957 c -39.21819,7.07679 -77.69876,17.76152 -114.95117,31.91797 z"
       transform="matrix(0.26458333,0,0,0.26458333,-700.46838,-293.45255)"
       sodipodi:nodetypes="ccccc" />
    <path
       id="rect246-5"
       style="opacity:1;fill:#000000;stroke-width:18.9385;stroke-linecap:round;stroke-linejoin:round;stroke-miterlimit:26.8;paint-order:stroke fill markers;stroke:none"
       d="m 781.44336,204.44727 v 613.91796 l 0.0566,0.0527 114.89844,-105.49024 V 214.75 c -37.93497,-6.85161 -76.40633,-10.29956 -114.95508,-10.30273 z"
       transform="matrix(0.26458333,0,0,0.26458333,-700.46838,-293.45255)"
       sodipodi:nodetypes="cccccc" />
    <path
       id="rect246-1"
       style="opacity:1;fill:#000000;stroke-width:15.316;stroke-linecap:round;stroke-linejoin:round;stroke-miterlimit:26.8;paint-order:stroke fill markers;stroke:none"
       d="m 1011.3516,246.6875 v 360.69922 l 114.955,-105.54297 V 304.03711 a 647.06309,647.06309 0 0 0 -114.955,-57.34961 z"
       transform="matrix(0.26458333,0,0,0.26458333,-700.46838,-293.45255)" />
    <g
       style="opacity:1;fill:#000000;stroke:none"
       id="g1003-1-1"
       transform="matrix(0.80033163,-0.22644787,0.22644787,0.80033163,-441.33493,-12.10524)">
      <path
         d="m -48.178981,-324.09893 a 2.4525791,2.4525791 0 0 1 -2.452579,2.45258 2.4525791,2.4525791 0 0 1 -2.452579,-2.45258 2.4525791,2.4525791 0 0 1 2.452579,-2.45257 2.4525791,2.4525791 0 0 1 2.452579,2.45257 z"
         style="opacity:1;fill:#000000;stroke-width:6.45003;stroke-linecap:round;stroke-linejoin:round;stroke-miterlimit:26.8;paint-order:stroke fill markers;stroke:none"
         id="path935-4-1" />
      <path
         id="path935-7-4-3"
         style="opacity:1;fill:#000000;stroke-width:6.45004;stroke-linecap:round;stroke-linejoin:round;stroke-miterlimit:26.8;paint-order:stroke fill markers;stroke:none"
         d="m -53.637809,-319.76721 a 2.4525791,2.4525791 0 0 1 -2.45258,2.45258 2.4525791,2.4525791 0 0 1 -2.45258,-2.45258 2.4525791,2.4525791 0 0 1 2.45258,-2.45257 2.4525791,2.4525791 0 0 1 2.45258,2.45257 z" />
      <path
         d="m -42.719899,-319.76721 a 2.4525791,2.4525791 0 0 1 -2.45258,2.45258 2.4525791,2.4525791 0 0 1 -2.45258,-2.45258 2.4525791,2.4525791 0 0 1 2.45258,-2.45257 2.4525791,2.4525791 0 0 1 2.45258,2.45257 z"
         style="opacity:1;fill:#000000;stroke-width:6.45004;stroke-linecap:round;stroke-linejoin:round;stroke-miterlimit:26.8;paint-order:stroke fill markers;stroke:none"
         id="path935-7-8-8-0" />
    </g>
    <path
       id="path970-4-7"
       style="opacity:1;fill:#000000;stroke:none;stroke-width:0.220067px;stroke-linecap:butt;stroke-linejoin:miter;stroke-opacity:1"
       d="m -553.39403,-253.4727 c 0.20243,3.42816 1.083,7.69658 1.10317,12.26629 0.0166,3.75637 -0.82541,4.58319 -1.68216,7.52298 1.42889,-0.90449 2.65173,-2.05257 3.47857,-3.66841 0.77018,1.32162 1.5113,1.69926 2.25281,2.08919 0.42729,-0.72064 0.86068,-1.4306 0.82424,-2.95982 1.55086,0.94309 3.19395,1.28028 4.88492,1.30203 -2.27002,-2.0551 -3.42039,-2.3182 -5.37439,-5.52639 -2.37707,-3.90283 -3.86343,-7.99985 -5.48716,-11.02587 z" />
    <g
       style="opacity:1;fill:#000000;stroke:none"
       id="g1003-1-2"
       transform="matrix(0.65943051,-0.50691297,0.50691297,0.65943051,-410.04962,-47.065404)">
      <path
         d="m -48.178981,-324.09893 a 2.4525791,2.4525791 0 0 1 -2.452579,2.45258 2.4525791,2.4525791 0 0 1 -2.452579,-2.45258 2.4525791,2.4525791 0 0 1 2.452579,-2.45257 2.4525791,2.4525791 0 0 1 2.452579,2.45257 z"
         style="opacity:1;fill:#000000;stroke-width:6.45003;stroke-linecap:round;stroke-linejoin:round;stroke-miterlimit:26.8;paint-order:stroke fill markers;stroke:none"
         id="path935-4-2" />
      <path
         id="path935-7-4-5"
         style="opacity:1;fill:#000000;stroke-width:6.45004;stroke-linecap:round;stroke-linejoin:round;stroke-miterlimit:26.8;paint-order:stroke fill markers;stroke:none"
         d="m -53.637809,-319.76721 a 2.4525791,2.4525791 0 0 1 -2.45258,2.45258 2.4525791,2.4525791 0 0 1 -2.45258,-2.45258 2.4525791,2.4525791 0 0 1 2.45258,-2.45257 2.4525791,2.4525791 0 0 1 2.45258,2.45257 z" />
      <path
         d="m -42.719899,-319.76721 a 2.4525791,2.4525791 0 0 1 -2.45258,2.45258 2.4525791,2.4525791 0 0 1 -2.45258,-2.45258 2.4525791,2.4525791 0 0 1 2.45258,-2.45257 2.4525791,2.4525791 0 0 1 2.45258,2.45257 z"
         style="opacity:1;fill:#000000;stroke-width:6.45004;stroke-linecap:round;stroke-linejoin:round;stroke-miterlimit:26.8;paint-order:stroke fill markers;stroke:none"
         id="path935-7-8-8-9" />
    </g>
    <path
       id="path970-4-8"
       style="opacity:1;fill:#000000;stroke:none;stroke-width:0.220067px;stroke-linecap:butt;stroke-linejoin:miter;stroke-opacity:1"
       d="m -603.57645,-229.72043 c 1.45843,3.10906 3.85811,6.74725 5.57028,10.98411 1.40744,3.48278 0.93181,4.56276 1.22549,7.61073 0.99197,-1.36961 1.70229,-2.88912 1.87145,-4.69632 1.20511,0.94211 2.03341,1.01821 2.86663,1.10559 0.12981,-0.82767 0.26925,-1.64769 -0.33131,-3.05453 1.78994,0.30122 3.441,0.006 5.01963,-0.60094 -2.86997,-1.06754 -4.03594,-0.8856 -7.03971,-3.14126 -3.65415,-2.74405 -6.55296,-5.99854 -9.18246,-8.20738 z" />
  </g>
</svg>
