<svg xmlns="http://www.w3.org/2000/svg" xml:space="preserve" style="enable-background:new 0 0 512 512" viewBox="0 0 512 512"><title>St. Louis Cardinals insignia logo</title><path d="M 512,512 H 0 V 0 h 512 z" fill="#be0a14" /><g><path d="m 140.30949,480 c -7.90423,0 -14.39698,-6.49275 -14.39698,-14.39697 v -28.79395 c 0,-6.49276 4.79899,-12.13863 11.00945,-12.98551 1.69376,-0.28229 3.38753,-0.28229 5.36358,-0.28229 7.90422,0 8.7511,-3.10523 8.7511,-5.64588 v -35.85129 c -8.7511,-3.66982 -15.52615,-7.05734 -20.04284,-9.31569 -2.82294,-1.41147 -5.08129,-2.54064 -7.05735,-3.66982 -8.4688,-4.2344 -11.00945,-5.64587 -17.7845,-5.92816 -3.38752,0 -7.621923,0.28229 -13.267796,0.84688 h -1.411468 c -4.516699,0 -8.751103,-1.69376 -11.57404,-4.79899 -2.258349,-2.54065 -3.669817,-5.92817 -3.669817,-9.31569 0,-3.38753 1.129175,-6.77505 3.669817,-9.59799 4.234405,-4.5167 7.904222,-8.7511 11.009452,-12.13862 3.669818,-4.23441 6.775048,-7.62193 9.597982,-11.00946 l 3.95211,-4.5167 c 2.82294,-3.10523 6.49276,-4.79899 10.72716,-4.79899 h 0.56459 c 2.54064,0 5.08128,0.84688 7.33963,1.97606 3.10523,1.69376 6.49276,3.66982 10.44487,5.92816 5.36358,2.82294 11.29174,5.64588 17.21991,8.18652 v -44.60239 c -43.75551,-9.59799 -74.807814,-47.14304 -74.807814,-92.02773 0,-44.88469 31.616884,-84.12351 74.807814,-94.286077 v -7.904222 c 0,-3.669817 -3.10523,-6.775047 -6.77505,-6.775047 h -3.95211 c -7.90422,0 -14.39697,-6.492754 -14.39697,-14.396976 V 46.396972 c 0,-7.904222 6.49275,-14.396975 14.39697,-14.396975 h 78.19534 c 7.90422,0 14.39698,6.492753 14.39698,14.396975 v 17.502206 c 0,7.904222 -6.49276,14.396976 -14.39698,14.396976 h -3.95211 c -3.66982,0 -6.77505,3.10523 -6.77505,6.775047 v 5.081285 c 54.48267,0.282294 106.14241,11.856334 126.18526,16.937614 2.82294,0.84689 5.36358,1.41147 7.62193,1.97606 6.49275,1.69376 9.88027,2.54064 13.55009,2.54064 3.95211,0 9.0334,-0.84688 18.34909,-3.38752 1.41147,-0.28229 3.10523,-0.56459 4.5167,-0.56459 5.36358,0 10.16257,2.54064 12.70321,7.05734 2.54064,4.23441 2.25835,9.31569 -0.28229,13.83239 -6.77505,11.85633 -11.85634,20.32514 -16.09074,27.10019 l -3.10523,5.08129 c -2.54064,4.2344 -7.33964,7.05734 -12.13863,7.05734 -1.69376,0 -3.10523,-0.2823 -4.79899,-0.84688 -46.57845,-16.37303 -105.57782,-22.58349 -146.5104,-22.86579 v 81.58286 h 52.50662 v -8.46881 c -10.72716,0.84689 -16.65533,3.10523 -16.65533,3.10523 l -0.28229,0.2823 -0.56459,0.28229 c -1.69376,0.56459 -3.10523,0.84688 -4.5167,0.84688 -3.38752,0 -6.77504,-1.41147 -9.03339,-3.66981 -4.23441,-4.5167 -4.23441,-10.44487 -4.23441,-13.26781 v -22.30119 c 0.56459,-6.77505 5.92817,-11.85634 12.70322,-11.85634 h 99.36736 c 6.77505,0 12.42092,5.36358 12.70321,11.85634 l 0.2823,22.0189 c 0,2.82294 0.28229,8.7511 -3.95211,12.98551 -2.25835,2.54064 -5.64588,3.66982 -9.0334,3.66982 -1.69376,0 -3.38752,-0.2823 -5.08129,-0.84689 -1.12917,-0.28229 -8.46881,-2.25834 -17.5022,-3.38752 v 8.7511 c 66.05671,4.5167 106.4247,47.42534 106.4247,86.66415 0,60.12855 -51.37744,97.39131 -133.80719,97.39131 -9.88027,0 -20.32514,-0.56459 -30.48771,-1.69376 -16.09074,-1.69377 -31.0523,-4.5167 -48.5545,-8.75111 v 18.0668 c 0,5.36357 2.54064,5.36357 8.18651,5.36357 h 141.42911 c 4.5167,0 20.04285,-1.12917 34.15754,-15.24385 2.82293,-2.82294 6.49275,-4.23441 10.16257,-4.23441 3.95211,0 7.90422,1.69377 10.44486,4.5167 l 20.04285,21.73661 c 5.36358,5.64587 5.08128,14.39698 -0.56459,20.04285 -20.04285,20.04285 -44.3201,29.92313 -74.52552,29.92313 H 140.30949 Z m 67.18588,-135.50094 c 27.38248,7.33963 54.20038,11.00945 78.19534,11.00945 48.8368,0 80.45369,-15.52615 80.45369,-39.80341 0,-23.99495 -30.20542,-33.02835 -51.94203,-35.2867 v 18.06679 l 4.2344,9.31569 c 1.69376,3.95211 1.41147,8.46881 -0.84688,12.13863 -2.25835,3.66982 -6.49275,5.92817 -10.72716,5.92817 H 268.1885 c -4.2344,0 -8.18651,-2.25835 -10.72715,-5.64588 -2.25835,-3.66981 -2.82294,-8.18651 -1.12918,-12.13862 l 3.95211,-9.59799 V 279.57152 H 207.49537 Z M 150.75435,149.43415 c -13.2678,7.33964 -21.73661,20.88973 -21.73661,35.85129 0,17.50221 8.46881,31.61689 21.73661,37.82735 z" fill="#000066" /><path d="m 424.86147,437.09137 -20.04284,-21.73661 c -1.69377,-1.69376 -4.5167,-1.69376 -6.21046,0 -14.11469,14.11468 -30.48772,18.34909 -41.21488,18.34909 h -141.7114 c -9.59799,0 -18.0668,-0.84688 -18.0668,-10.72716 V 387.1254 c 21.45432,5.92816 39.23882,9.59798 59.56396,11.57403 79.60681,8.46881 153.28545,-16.09073 153.28545,-85.53497 0,-36.98046 -42.62634,-75.65469 -105.29553,-76.78387 -0.56459,0 -1.12917,-0.56459 -1.12917,-1.12917 v -26.5356 c 0,-0.56459 0.56458,-1.12918 1.12917,-1.12918 15.80845,0 29.35854,4.23441 29.35854,4.23441 5.64587,2.25834 4.79899,-4.5167 4.79899,-6.77505 l -0.28229,-20.88973 c 0,-1.41147 -1.69376,-2.25835 -2.54064,-2.25835 H 237.1362 c -1.12917,0 -2.54064,0.84688 -2.54064,2.54064 v 20.88973 c 0,2.54064 -0.28229,8.18652 4.79899,6.77505 0,0 10.72716,-4.5167 29.35854,-4.23441 0.56459,0 1.12918,0.56459 1.12918,1.12918 v 26.5356 c 0,0.56459 -0.56459,1.12918 -1.12918,1.12918 h -70.00882 c -0.56459,0 -1.12918,-0.56459 -1.12918,-1.12918 V 135.31947 c 0,-0.56459 0.56459,-1.12918 1.12918,-1.12918 37.26276,-0.56458 105.01323,4.5167 158.64902,23.14808 1.97606,0.56459 3.95212,0 5.08129,-1.69376 4.5167,-7.62193 10.44486,-17.21991 19.19597,-32.18147 1.97605,-3.66982 -1.12918,-6.49276 -5.64588,-5.36358 -23.43037,6.21046 -24.27725,3.95211 -44.88468,-1.12918 -23.43038,-5.92816 -78.19534,-17.502203 -132.67801,-16.65532 -0.56459,0 -1.41147,-0.56459 -1.41147,-1.129177 V 85.071201 c 0,-9.31569 7.62193,-16.937618 16.93762,-16.937618 h 3.95211 c 2.25835,0 4.2344,-1.976056 4.2344,-4.234405 V 46.396972 c 0,-2.258349 -1.97605,-4.234404 -4.2344,-4.234404 h -77.63075 c -2.25835,0 -4.23441,1.976055 -4.23441,4.234404 v 17.502206 c 0,2.258349 1.97606,4.234405 4.23441,4.234405 h 3.95211 c 9.31569,0 16.93761,7.621928 16.93761,16.937618 v 15.243859 c 0,0.56458 -0.56458,1.12917 -1.12917,1.12917 -41.77946,6.49276 -73.960933,42.62634 -73.960933,85.81727 0,43.47322 32.181473,77.34846 73.678643,83.27662 0.56458,0 1.12917,0.56459 1.12917,1.12918 v 67.75047 c -11.00945,-4.5167 -21.73661,-9.31569 -32.18147,-14.67927 -3.66982,-1.97605 -7.33964,-4.2344 -11.00946,-6.21046 -0.84688,-0.56459 -1.69376,-0.56459 -2.54064,-0.56459 -1.41147,0 -2.54064,0.2823 -3.38752,1.41147 -3.66982,4.23441 -8.18652,9.0334 -13.832391,15.52615 -3.387523,3.66982 -6.775047,7.62193 -11.009452,12.13863 -0.84688,0.84688 -1.129174,1.97605 -1.129174,2.82294 -0.282294,2.25834 1.976055,4.2344 5.363579,3.95211 5.645873,-0.56459 10.444868,-0.56459 14.396978,-0.84688 11.00945,0.56458 14.96156,3.66981 29.07624,10.44486 6.21046,3.10523 15.24386,7.05734 25.68872,11.57404 v 46.86074 c 0,13.5501 -16.65532,11.00946 -23.14807,11.57404 -1.41147,0.2823 -1.97606,1.69376 -1.97606,2.82294 v 28.79395 c 0,2.25835 1.97606,4.2344 4.2344,4.2344 h 217.93069 c 27.66478,0 49.40139,-9.03339 67.46818,-26.81789 1.41147,-1.12918 1.69377,-3.66982 0,-5.36358 z M 197.61509,271.385 c 0,-0.56458 0.56459,-1.12917 1.12918,-1.12917 h 70.29112 c 0.56458,0 1.12917,0.56459 1.12917,1.12917 v 27.66478 c 0,1.41147 -0.28229,2.54064 -0.84688,3.95211 l -3.95211,9.59798 c -0.84688,1.69377 0.56459,3.95212 2.54064,3.95212 h 38.67423 c 1.97605,0 3.38752,-1.97606 2.54064,-3.95212 l -4.2344,-9.31569 c -0.56459,-1.41146 -0.84688,-2.82293 -0.84688,-4.2344 V 271.6673 c 0,-0.56459 0.56458,-1.41147 1.12917,-1.12918 25.40643,0.2823 70.8557,10.16257 70.8557,45.73157 0,47.42533 -81.86515,64.08066 -178.69187,36.41588 0,0 -0.28229,0 -0.28229,-0.28229 V 271.385 Z m -38.10964,-35.00441 c -24.84184,-3.95211 -40.36799,-25.12413 -40.36799,-51.09515 0,-23.99496 17.21991,-44.3201 40.36799,-49.96597 0.84688,-0.28229 1.69376,0.28229 1.69376,1.12917 v 98.52048 c -0.28229,0.84688 -0.84688,1.41147 -1.69376,1.41147 z" fill="#ffffff" /></g></svg>