<svg xmlns="http://www.w3.org/2000/svg" xmlns:xlink="http://www.w3.org/1999/xlink" width="56.692" height="67.725" viewBox="0 0 56.692 67.725">
  <defs>
    <linearGradient id="linear-gradient" y1="0.5" x2="1" y2="0.5" gradientUnits="objectBoundingBox">
      <stop offset="0" stop-color="#c49b74"/>
      <stop offset="0.374" stop-color="#b88d56"/>
      <stop offset="0.477" stop-color="#c5a678"/>
      <stop offset="0.724" stop-color="#f7d8ba"/>
      <stop offset="0.933" stop-color="#c5a577"/>
      <stop offset="1" stop-color="#b88f56"/>
    </linearGradient>
  </defs>
  <g transform="translate(-982 -266)">
    <g transform="translate(982 266)">
      <path d="M71.17,29.716,44.638,80.04,18.114,29.716,28.686,14.125H60.609Z" transform="translate(-16.296 -12.935)" fill="#fff"/>
      <path d="M163.711,241.014l.109-.142c.038-.048.075-.093.113-.139s.077-.093.114-.138c.077-.091.158-.18.239-.268l.122-.13.126-.129q.252-.254.518-.491c.178-.159.36-.311.546-.457.093-.074.185-.146.28-.216l.14-.1.071-.049.033-.023.016-.01.009-.006,0,0-.975-1.118c-.03.032-.051.055-.074.083l-.066.077c-.043.051-.085.1-.128.154q-.124.154-.243.308c-.158.208-.31.418-.455.634s-.284.434-.416.657c-.032.056-.065.111-.1.168l-.094.171-.262.52-.08.175-.077.18c-.024.058-.048.12-.071.18l-.03.081.511-3.368a3.281,3.281,0,0,0-.627-2.473l-.213-.282-.213.282a3.287,3.287,0,0,0-.628,2.473l.512,3.368-.03-.081c-.025-.059-.046-.122-.073-.18l-.075-.18c-.026-.058-.054-.117-.081-.175s-.055-.118-.084-.175c-.056-.117-.117-.23-.178-.345l-.094-.171c-.032-.057-.065-.112-.1-.168-.132-.223-.269-.442-.414-.657s-.3-.426-.456-.634q-.117-.154-.243-.308c-.042-.051-.084-.1-.128-.154l-.065-.077c-.024-.028-.043-.051-.074-.083l-.976,1.118.006,0,.007.006.016.01.035.023.069.049c.046.033.094.067.14.1.094.069.188.142.281.216.185.146.368.3.544.457s.352.322.52.491c.04.043.084.085.124.129l.123.13c.079.088.161.177.237.268.039.045.078.09.116.138s.075.091.112.139l.109.142c.037.048.071.1.106.146s.091.13.135.2l-.051.009a3.343,3.343,0,0,0-.4.1c-.067.022-.133.045-.2.072a1.569,1.569,0,0,0-.2.1,1.817,1.817,0,0,0,.2.1q.1.041.2.074a3.679,3.679,0,0,0,.4.1,3.759,3.759,0,0,0,.4.056c.022.042.043.084.061.127l.072.167.062.171a3.719,3.719,0,0,1,.158.61l.016.106.016-.106a3.729,3.729,0,0,1,.156-.61l.064-.171.072-.167a1.315,1.315,0,0,1,.056-.121,4.236,4.236,0,0,0,.464-.061,3.332,3.332,0,0,0,.4-.1c.067-.022.133-.045.2-.074a1.856,1.856,0,0,0,.2-.1,1.6,1.6,0,0,0-.2-.1c-.066-.027-.133-.052-.2-.074a3.265,3.265,0,0,0-.4-.1l-.1-.019c.041-.062.084-.124.126-.185s.07-.1.106-.146" transform="translate(-134.412 -197.524)" fill="#c5a577"/>
      <path d="M172.533,191.389v-5.683h-3.711v5.7a2.469,2.469,0,0,1,1.847-.665,2.56,2.56,0,0,1,1.864.652" transform="translate(-142.327 -156.422)" fill="#140e0b"/>
      <g transform="translate(14.626 3.342)">
        <path d="M96.922,28a.181.181,0,0,1,.207-.207h.365c.147,0,.212.066.212.207v1.6h-.785ZM96.41,31.12h.436a.067.067,0,0,0,.076-.076v-.915h.785v.915a.067.067,0,0,0,.076.076h.458a.067.067,0,0,0,.076-.076V28a.636.636,0,0,0-.676-.73H97.01a.636.636,0,0,0-.676.73v3.041a.067.067,0,0,0,.076.076" transform="translate(-96.334 -27.273)" fill="#140e0b"/>
        <path d="M127.677,31.286h.436a.067.067,0,0,0,.076-.076V29.041h.038l.872,2.169a.109.109,0,0,0,.109.076h.311c.055,0,.076-.022.076-.076V27.548c0-.054-.022-.076-.076-.076h-.436c-.049,0-.071.022-.071.076V29.6h-.038l-.823-2.049a.109.109,0,0,0-.109-.076h-.365a.067.067,0,0,0-.076.076V31.21a.067.067,0,0,0,.076.076" transform="translate(-122.481 -27.439)" fill="#140e0b"/>
        <path d="M159.612,31.153h.6a.636.636,0,0,0,.676-.73v-1.15a.067.067,0,0,0-.076-.076h-.768a.078.078,0,0,0-.082.071l-.033.349c-.005.049.027.076.076.076h.294v.73a.18.18,0,0,1-.207.207h-.343a.18.18,0,0,1-.207-.207V28a.18.18,0,0,1,.207-.207h.343A.18.18,0,0,1,160.3,28v.436a.063.063,0,0,0,.076.071l.436-.044a.079.079,0,0,0,.076-.082V28a.636.636,0,0,0-.676-.73h-.6a.636.636,0,0,0-.676.73v2.419a.636.636,0,0,0,.676.73" transform="translate(-148.685 -27.273)" fill="#140e0b"/>
        <path d="M190.113,31.286h1.6a.078.078,0,0,0,.082-.071l.049-.376a.061.061,0,0,0-.065-.077h-1.133V29.608h.757a.078.078,0,0,0,.082-.071l.049-.376a.061.061,0,0,0-.065-.076h-.823V28h1.068a.078.078,0,0,0,.082-.071l.049-.376c.005-.049-.016-.076-.065-.076h-1.667a.067.067,0,0,0-.076.076V31.21a.067.067,0,0,0,.076.076" transform="translate(-174.694 -27.439)" fill="#140e0b"/>
        <path d="M220.855,28h.539a.18.18,0,0,1,.207.207v1.362a.18.18,0,0,1-.207.207h-.539Zm-.534,3.291h.458a.067.067,0,0,0,.076-.076v-.915h.376l.436.926a.093.093,0,0,0,.1.065h.474c.055,0,.071-.043.049-.087l-.48-.98v-.044a.615.615,0,0,0,.4-.671V28.2a.636.636,0,0,0-.676-.73h-1.215a.067.067,0,0,0-.076.076V31.21a.067.067,0,0,0,.076.076" transform="translate(-199.955 -27.439)" fill="#140e0b"/>
        <path d="M252.606,31.153h.686c.409,0,.67-.234.67-.73v-.774c0-.5-.262-.73-.67-.73h-.512c-.142,0-.212-.065-.212-.207V28c0-.142.071-.207.212-.207h.332c.141,0,.213.065.213.207v.381a.063.063,0,0,0,.076.071l.43-.044a.076.076,0,0,0,.076-.082V28c0-.5-.262-.73-.67-.73h-.6c-.409,0-.67.234-.67.73v.708c0,.5.261.73.67.73h.512c.142,0,.213.065.213.207v.774c0,.142-.071.207-.213.207h-.414c-.142,0-.213-.065-.213-.207v-.447a.063.063,0,0,0-.076-.071l-.43.043a.076.076,0,0,0-.076.082v.392c0,.5.261.73.67.73" transform="translate(-226.457 -27.273)" fill="#140e0b"/>
      </g>
      <path d="M81.312,81.58s5.164,0,5.507,0a1.69,1.69,0,0,0,1.676-1.69V76.938a2.22,2.22,0,0,0-.653-1.573l-5.929-5.909a.379.379,0,0,1-.136-.295v-2.2a.128.128,0,0,1,.136-.134h3.76a.126.126,0,0,1,.134.134v2.655l2.688.011V66.575a2.221,2.221,0,0,0-2.221-2.221H81.312a2.221,2.221,0,0,0-2.221,2.221s0,2.686,0,2.913a1.687,1.687,0,0,0,.5,1.19L85.8,76.867l0,2.107a.134.134,0,0,1-.134.134h-3.76a.136.136,0,0,1-.136-.136V76.328l-2.686-.006v3.038a2.221,2.221,0,0,0,2.221,2.221" transform="translate(-67.288 -54.94)" fill="#140e0b"/>
      <path d="M226.166,66.979a.133.133,0,0,1,.133-.133h3.813a.133.133,0,0,1,.133.133l-.01,11.979a.169.169,0,0,1-.169.169h-3.719a.169.169,0,0,1-.169-.169ZM225.7,81.6h5a2.221,2.221,0,0,0,2.221-2.221l.011-12.769a2.221,2.221,0,0,0-2.217-2.223l-5.016-.009a2.221,2.221,0,0,0-2.225,2.223l.01,12.779A2.221,2.221,0,0,0,225.7,81.6Z" transform="translate(-188.031 -54.96)" fill="#140e0b"/>
      <path d="M151.772,79.335a2.221,2.221,0,0,0,2.214,2.221l4.994.016a2.221,2.221,0,0,0,2.228-2.22V76.325h-2.693l0,2.612a.169.169,0,0,1-.169.169h-3.72a.169.169,0,0,1-.169-.169l-.01-11.979a.133.133,0,0,1,.133-.132H158.4a.133.133,0,0,1,.133.132v2.659l2.687.008,0-2.963a2.308,2.308,0,0,0-2.307-2.309h-4.929a2.221,2.221,0,0,0-2.221,2.223Z" transform="translate(-128.059 -54.938)" fill="#140e0b"/>
      <g transform="translate(0 0)">
        <path d="M8.829,23.642,19.4,8.051H51.324L61.885,23.642,35.354,73.967Zm9.985-16.78L7.011,23.641,35.352,74.587h0L63.7,23.641,51.914,6.862Z" transform="translate(-7.011 -6.862)" fill="url(#linear-gradient)"/>
      </g>
      <path d="M78.515,62.645,71.424,53.5l0,0,0,0,4.847,9.143-5.953,12.5H66.754v7.488l-3.712,7.8V75.149h-3.71V98.231l-3.712,7.8V96.206a1.856,1.856,0,1,0-3.713,0V106l-3.712-7.8V75.149H44.481V90.4l-3.713-7.8V75.149H37.222l-5.953-12.5L36.115,53.5l0,0v0l-7.091,9.142,24.758,48.324h0Z" transform="translate(-25.42 -45.864)" fill="#140e0b"/>
    </g>
  </g>
</svg>
